<svg width="15" height="15" viewBox="0 0 15 15" fill="none" xmlns="http://www.w3.org/2000/svg">
<path d="M11.7176 12.6773V8.87852L11.8698 8.72626V12.6773C11.8698 12.8414 11.8222 12.9742 11.7176 13.0951V12.6773ZM2.5 4.60808C2.5 4.44406 2.54748 4.31104 2.6522 4.18975V4.60808V12.6773V13.0951C2.54752 12.9742 2.5 12.8414 2.5 12.6773V4.60808ZM3.1522 13.33C2.98851 13.33 2.85563 13.2825 2.73428 13.1773H3.1522H11.2176H11.6355C11.5141 13.2825 11.3813 13.33 11.2176 13.33H3.1522ZM3.1522 4.10808H2.73374C2.85512 4.00293 2.98816 3.95533 3.1522 3.95533H7.08716L6.9345 4.10808H3.1522ZM9.5932 4.4909L9.70095 4.59681L6.25514 8.04424L6.10878 8.19067V8.39771V9.21904V9.71904H6.60878H7.41532H7.62249L7.76895 9.57251L11.2351 6.10474L11.3428 6.21064L7.88262 9.67249C7.8209 9.73424 7.74933 9.78394 7.6647 9.82218C7.59006 9.85538 7.51327 9.87178 7.42972 9.87178H6.03268C6.00828 9.87178 5.9976 9.86787 5.99472 9.86671C5.99231 9.86574 5.98648 9.86323 5.97614 9.85289C5.96544 9.84219 5.96276 9.83604 5.9617 9.83344C5.96048 9.8304 5.95659 9.81968 5.95659 9.79541V8.39771C5.95659 8.30826 5.97299 8.22663 6.00513 8.14881L5.54304 7.95796L6.00495 8.14926C6.03764 8.07032 6.08262 8.00315 6.14148 7.94426L9.5932 4.4909ZM13.1251 4.42752L12.0498 5.50335L11.5825 5.044L11.2288 4.69643L11.1211 4.59052L10.7615 4.23708L10.3002 3.78361L11.384 2.69929C11.522 2.56121 11.6715 2.5 11.8588 2.5C12.045 2.5 12.1853 2.56037 12.3111 2.69169L12.3111 2.69172L12.3155 2.69615L13.122 3.51748L13.122 3.51749L13.1251 3.52062C13.2507 3.64626 13.31 3.78743 13.31 3.97407C13.31 4.1607 13.2507 4.30188 13.1251 4.42752Z" stroke="white"/>
</svg>
